# xmcd
#
# Track frame offsets:
#	150
#	20097
#	43920
#	65760
#	83107
#	106310
#	128475
#	152332
#	172812
#	195445
#
# Disc length: 2843 seconds
#
# Revision: 3
# Processed by: cddbd v1.5PL3 Copyright (c) Steve Scherf et al.
# Submitted via: EasyCDDAExtractor 5.0.6
#
DISCID=770b190a
DTITLE=熊天平 - 雪候鳥
DYEAR=1997
DGENRE=國語流行
TTITLE0=Mr.Moon
TTITLE1=雪候鳥
TTITLE2=大雨帶我逃亡
TTITLE3=順其自然
TTITLE4=迷失左岸
TTITLE5=月亮森林
TTITLE6=你的晴天我的雨天
TTITLE7=心有靈犀
TTITLE8=藏書人
TTITLE9=夢田農夫
EXTD=nothing YEAR: 1997
EXTT0=
EXTT1=
EXTT2=
EXTT3=
EXTT4=
EXTT5=
EXTT6=
EXTT7=
EXTT8=
EXTT9=
PLAYORDER=
